<?xml version="1.0" encoding="utf-8"?>
<!-- Generator: Adobe Illustrator 15.1.0, SVG Export Plug-In . SVG Version: 6.00 Build 0)  -->
<!DOCTYPE svg PUBLIC "-//W3C//DTD SVG 1.1//EN" "http://www.w3.org/Graphics/SVG/1.1/DTD/svg11.dtd">
<svg version="1.1" id="Livello_1" xmlns="http://www.w3.org/2000/svg" xmlns:xlink="http://www.w3.org/1999/xlink" x="0px" y="0px"
	 width="219.333px" height="28.794px" viewBox="0 0 219.333 28.794" enable-background="new 0 0 219.333 28.794"
	 xml:space="preserve">
<g>
	<path fill="#14B1E7" d="M17.588,0.655h5.456l-3.41,16.368c-0.91,4.338-2.102,7.275-3.576,8.812s-3.742,2.304-6.801,2.304
		c-2.593,0-4.535-0.596-5.825-1.788c-1.291-1.191-1.936-2.813-1.936-4.866c0-0.43,0.031-0.909,0.092-1.438l5.143-0.553
		c-0.074,0.54-0.11,0.989-0.11,1.345c0,0.86,0.246,1.519,0.737,1.973c0.491,0.455,1.247,0.682,2.267,0.682
		c1.425,0,2.427-0.417,3.004-1.253c0.43-0.639,0.952-2.439,1.567-5.4L17.588,0.655z"/>
	<path fill="#14B1E7" d="M41.974,19.53H28.703c-0.013,0.209-0.019,0.369-0.019,0.479c0,1.303,0.372,2.354,1.115,3.152
		c0.743,0.799,1.649,1.198,2.719,1.198c1.757,0,3.127-0.91,4.11-2.729l4.737,0.793c-0.922,1.904-2.154,3.333-3.696,4.285
		c-1.542,0.952-3.272,1.429-5.189,1.429c-2.629,0-4.768-0.832-6.414-2.498c-1.647-1.665-2.47-3.867-2.47-6.607
		c0-2.679,0.744-5.063,2.23-7.152c2.027-2.826,4.921-4.239,8.682-4.239c2.396,0,4.301,0.74,5.714,2.221
		c1.413,1.481,2.12,3.555,2.12,6.222C42.342,17.362,42.22,18.511,41.974,19.53z M37.513,16.305c0.012-0.233,0.019-0.411,0.019-0.534
		c0-1.45-0.326-2.538-0.977-3.263s-1.524-1.088-2.617-1.088c-1.094,0-2.074,0.412-2.94,1.235c-0.867,0.823-1.454,2.04-1.76,3.649
		H37.513z"/>
	<path fill="#14B1E7" d="M48.075,8.103h5.014l-0.516,2.543c1.253-1.081,2.424-1.852,3.511-2.313s2.233-0.691,3.438-0.691
		c1.61,0,2.878,0.461,3.807,1.383c0.927,0.921,1.392,2.144,1.392,3.668c0,0.688-0.203,1.99-0.608,3.907l-2.304,11.078h-5.29
		l2.323-11.114c0.344-1.659,0.516-2.648,0.516-2.969c0-0.675-0.2-1.207-0.599-1.594c-0.399-0.388-0.956-0.581-1.668-0.581
		c-0.774,0-1.634,0.326-2.581,0.978s-1.689,1.511-2.23,2.58c-0.394,0.763-0.836,2.316-1.327,4.664l-1.677,8.036h-5.291L48.075,8.103
		z"/>
	<path fill="#14B1E7" d="M71.06,8.103h5.29l-4.092,19.575h-5.291L71.06,8.103z M72.608,0.655h5.29l-0.996,4.793h-5.29L72.608,0.655z
		"/>
	<path fill="#14B1E7" d="M81.511,8.103h5.29l-2.415,11.594c-0.295,1.389-0.442,2.255-0.442,2.6c0,0.564,0.209,1.05,0.627,1.456
		c0.417,0.405,0.952,0.608,1.604,0.608c0.467,0,0.928-0.09,1.382-0.268s0.922-0.448,1.401-0.812
		c0.479-0.362,0.909-0.776,1.291-1.244c0.38-0.467,0.737-1.081,1.069-1.843c0.233-0.565,0.485-1.487,0.756-2.765l1.954-9.327h5.29
		l-4.092,19.575h-4.94l0.553-2.654c-2.163,2.077-4.516,3.115-7.06,3.115c-1.61,0-2.875-0.461-3.797-1.383
		c-0.921-0.921-1.382-2.156-1.382-3.705c0-0.675,0.209-2.021,0.626-4.036L81.511,8.103z"/>
	<path fill="#14B1E7" d="M99.833,22.203l5.124-0.811c0.455,1.081,1.02,1.846,1.696,2.295c0.676,0.448,1.597,0.673,2.765,0.673
		c1.205,0,2.169-0.271,2.894-0.812c0.504-0.368,0.756-0.817,0.756-1.346c0-0.356-0.129-0.676-0.387-0.958
		c-0.271-0.271-1.001-0.603-2.193-0.996c-3.195-1.057-5.173-1.892-5.935-2.506c-1.192-0.959-1.788-2.212-1.788-3.761
		s0.578-2.882,1.732-4c1.61-1.561,4-2.341,7.17-2.341c2.519,0,4.424,0.461,5.714,1.383c1.291,0.921,2.107,2.169,2.452,3.741
		l-4.885,0.848c-0.258-0.712-0.676-1.247-1.253-1.604c-0.786-0.479-1.732-0.719-2.838-0.719s-1.902,0.185-2.387,0.553
		c-0.485,0.369-0.728,0.793-0.728,1.272c0,0.491,0.246,0.896,0.737,1.216c0.307,0.197,1.296,0.542,2.968,1.033
		c2.581,0.749,4.307,1.486,5.18,2.212c1.229,1.02,1.843,2.248,1.843,3.687c0,1.855-0.78,3.465-2.341,4.829s-3.76,2.046-6.599,2.046
		c-2.827,0-5.011-0.52-6.553-1.558C101.433,25.543,100.386,24.083,99.833,22.203z"/>
	<path fill="#14B1E7" d="M134.781,20.305l5.143,0.829c-0.849,2.286-2.102,4.025-3.761,5.217c-1.659,1.192-3.582,1.788-5.77,1.788
		c-2.494,0-4.473-0.743-5.935-2.23c-1.462-1.486-2.193-3.532-2.193-6.138c0-2.126,0.442-4.135,1.327-6.028
		c0.885-1.892,2.218-3.382,4-4.47c1.782-1.087,3.735-1.631,5.862-1.631c2.31,0,4.153,0.603,5.529,1.807s2.15,2.789,2.322,4.755
		l-5.032,0.535c-0.123-1.094-0.458-1.898-1.004-2.415c-0.547-0.516-1.263-0.774-2.147-0.774c-1.021,0-1.973,0.382-2.857,1.144
		s-1.563,1.901-2.036,3.419c-0.474,1.518-0.71,2.94-0.71,4.268c0,1.155,0.282,2.046,0.848,2.672c0.565,0.627,1.271,0.94,2.12,0.94
		c0.848,0,1.665-0.307,2.451-0.922C133.724,22.455,134.339,21.534,134.781,20.305z"/>
	<path fill="#14B1E7" d="M147.867,27.678h-5.29l5.659-27.022h5.29l-2.027,9.622c1.191-0.934,2.304-1.606,3.336-2.019
		c1.032-0.411,2.138-0.617,3.317-0.617c1.586,0,2.839,0.455,3.761,1.364s1.382,2.101,1.382,3.575c0,0.787-0.172,2.003-0.516,3.65
		l-2.396,11.446h-5.29l2.452-11.668c0.258-1.266,0.387-2.076,0.387-2.433c0-0.651-0.203-1.174-0.608-1.567
		c-0.405-0.393-0.958-0.59-1.659-0.59c-0.885,0-1.732,0.308-2.543,0.922c-1.058,0.811-1.862,1.807-2.415,2.986
		c-0.308,0.651-0.713,2.182-1.217,4.59L147.867,27.678z"/>
	<path fill="#14B1E7" d="M184.621,19.53H171.35c-0.012,0.209-0.018,0.369-0.018,0.479c0,1.303,0.371,2.354,1.114,3.152
		c0.744,0.799,1.65,1.198,2.719,1.198c1.758,0,3.128-0.91,4.111-2.729l4.736,0.793c-0.921,1.904-2.153,3.333-3.695,4.285
		s-3.271,1.429-5.188,1.429c-2.63,0-4.769-0.832-6.415-2.498c-1.646-1.665-2.47-3.867-2.47-6.607c0-2.679,0.743-5.063,2.23-7.152
		c2.027-2.826,4.921-4.239,8.682-4.239c2.396,0,4.301,0.74,5.714,2.221c1.413,1.481,2.12,3.555,2.12,6.222
		C184.99,17.362,184.867,18.511,184.621,19.53z M180.161,16.305c0.012-0.233,0.018-0.411,0.018-0.534
		c0-1.45-0.325-2.538-0.977-3.263s-1.523-1.088-2.617-1.088s-2.074,0.412-2.94,1.235s-1.453,2.04-1.76,3.649H180.161z"/>
	<path fill="#14B1E7" d="M190.483,8.103h4.977l-0.497,2.378c1.941-1.893,3.981-2.839,6.119-2.839c1.475,0,2.611,0.308,3.41,0.922
		s1.309,1.462,1.529,2.543c0.676-0.982,1.647-1.806,2.913-2.47c1.266-0.663,2.58-0.995,3.944-0.995c1.561,0,2.776,0.418,3.649,1.253
		c0.872,0.836,1.309,1.942,1.309,3.318c0,0.676-0.172,1.843-0.516,3.502l-2.507,11.963h-5.29l2.507-11.963
		c0.307-1.499,0.461-2.347,0.461-2.544c0-0.54-0.163-0.968-0.489-1.28c-0.325-0.313-0.813-0.471-1.465-0.471
		c-1.315,0-2.488,0.694-3.521,2.083c-0.75,0.995-1.389,2.759-1.917,5.29l-1.862,8.885h-5.29l2.471-11.834
		c0.282-1.364,0.424-2.249,0.424-2.654c0-0.516-0.176-0.939-0.525-1.271c-0.351-0.332-0.833-0.498-1.447-0.498
		c-0.578,0-1.174,0.173-1.788,0.517s-1.151,0.817-1.612,1.419c-0.461,0.603-0.857,1.377-1.189,2.323
		c-0.147,0.442-0.387,1.443-0.719,3.004l-1.88,8.995h-5.29L190.483,8.103z"/>
</g>
</svg>
